<svg version="1.1" id="Layer_1" xmlns="http://www.w3.org/2000/svg" xmlns:xlink="http://www.w3.org/1999/xlink" x="0px" y="0px"
	 width="100%" viewBox="0 0 800 1024" enable-background="new 0 0 800 1024" xml:space="preserve">
<path fill="#000000" opacity="1.000000" stroke="none" 
	d="
M577.832642,111.151230 
	C614.324646,144.314667 639.830017,184.077103 654.051636,230.960724 
	C663.167542,261.012421 666.478943,291.733887 665.609863,323.149628 
	C664.799133,352.457550 665.403748,381.803894 665.285278,411.132935 
	C665.272766,414.238434 666.454407,415.464630 669.443542,416.111389 
	C703.639465,423.510406 725.153625,454.410675 725.184021,488.051880 
	C725.295105,611.202942 725.247192,734.354126 725.267395,857.505249 
	C725.268921,866.987671 725.340149,876.402039 723.465271,885.837463 
	C716.198547,922.406311 681.423096,951.362366 644.245850,951.363403 
	C482.432922,951.367920 320.619659,951.180725 158.807343,951.492981 
	C117.998199,951.571716 82.717567,918.372620 77.642937,878.687988 
	C76.279343,868.024414 77.124077,857.387695 77.105225,846.747681 
	C77.060638,821.590088 77.756050,796.428040 77.482246,771.275024 
	C77.188538,744.293091 77.237846,717.301514 77.357361,690.333618 
	C77.657883,622.522461 77.260895,554.711853 77.639420,486.902863 
	C77.827370,453.233154 98.249809,426.529633 131.160141,416.742889 
	C135.794342,415.364807 136.977646,413.266846 136.949905,408.727203 
	C136.745239,375.232758 136.309937,341.728790 136.861069,308.242828 
	C138.146225,230.157089 166.587845,163.911011 224.890640,111.300377 
	C264.000824,76.008568 309.701782,53.828415 361.869385,46.126137 
	C428.747009,36.251999 490.620544,50.169506 547.163208,87.381691 
	C557.901855,94.449112 567.981567,102.364288 577.832642,111.151230 
M98.189484,579.500000 
	C98.214218,675.821716 98.432732,772.143921 98.157219,868.464783 
	C98.062439,901.599976 126.788658,931.334778 159.742783,930.123718 
	C179.717163,929.389648 199.707535,930.390320 219.699539,930.273987 
	C251.675095,930.087952 283.661682,930.299438 315.641602,930.444214 
	C424.626740,930.937561 533.615234,930.678772 642.602417,930.740112 
	C647.302185,930.742737 651.909485,930.123230 656.463135,929.142761 
	C681.944153,923.656738 704.453308,898.174744 704.226929,868.335266 
	C703.756836,806.346252 704.037354,744.351379 704.032837,682.358948 
	C704.028137,617.700012 703.895874,553.040466 704.137939,488.382416 
	C704.235596,462.314423 685.258484,435.091705 650.823730,435.160522 
	C484.177307,435.493500 317.529358,435.470398 150.883072,435.085266 
	C120.385735,435.014801 97.527580,460.872101 98.106277,488.013855 
	C98.749100,518.162842 98.213661,548.336853 98.189484,579.500000 
M252.403442,188.916306 
	C275.945862,159.794052 305.347656,139.006363 340.880280,127.096161 
	C367.843689,118.058273 395.542816,115.620895 423.707458,119.102135 
	C439.796295,121.090775 455.477539,124.942535 470.306763,131.697281 
	C474.008850,133.383575 477.978485,134.877960 480.298218,138.602615 
	C479.538391,140.748978 476.868591,141.769699 477.687805,144.422531 
	C479.020081,148.736481 480.154999,152.944397 484.818054,155.278732 
	C489.644897,157.695068 493.701263,166.197296 492.655365,170.435516 
	C490.950226,171.581177 488.688690,169.080200 486.902863,171.558395 
	C488.942383,174.314346 491.816925,176.711899 492.141357,180.593994 
	C492.313568,182.654144 493.743469,184.226181 495.170471,185.653198 
	C503.309509,193.792328 510.300079,202.910645 517.586792,211.782440 
	C541.712891,241.156876 553.139038,275.012726 553.256042,312.822815 
	C553.353455,344.316345 553.355713,375.810944 553.173828,407.303772 
	C553.145508,412.206238 554.497437,414.184296 559.636536,414.060516 
	C571.291931,413.779816 582.962036,413.805634 594.619324,414.042480 
	C599.958984,414.150940 604.811340,411.698792 610.387817,412.434082 
	C619.249023,413.602417 628.275146,413.627533 637.238708,413.877167 
	C643.794800,414.059753 643.914062,413.824585 643.919556,407.178314 
	C643.948303,372.351990 643.929443,337.525635 643.954163,302.699310 
	C643.962097,291.516449 643.243286,280.348022 641.381104,269.361481 
	C631.672119,212.080460 605.542603,163.542160 561.497192,125.583824 
	C505.665863,77.468391 440.898560,57.254719 367.390137,67.174744 
	C318.568329,73.763306 275.660278,93.807503 239.383194,126.818855 
	C186.533264,174.911163 159.241409,235.110336 158.333344,306.774139 
	C157.909012,340.262390 158.236053,373.760162 158.232574,407.253632 
	C158.231873,413.944794 158.276703,414.317444 164.844131,413.897278 
	C180.903229,412.869812 197.013046,415.416901 213.091965,412.314575 
	C222.606689,410.478821 232.227219,414.235229 241.910110,414.029419 
	C249.709961,413.863617 249.709167,413.988739 249.712296,406.406067 
	C249.725464,374.412323 249.652451,342.418213 249.782349,310.424957 
	C249.894119,282.894745 256.688416,257.131561 270.260071,233.079422 
	C274.387207,225.765152 280.669403,219.593307 282.123627,210.763458 
	C282.784027,206.753571 281.931305,205.295258 277.914062,206.308456 
	C271.615234,207.897110 266.417694,211.158325 262.394073,216.515167 
	C248.134247,235.499939 240.943649,257.362335 236.279495,280.215424 
	C232.724976,297.631592 232.583344,315.383484 233.516876,332.984802 
	C234.054062,343.113434 228.402802,348.564178 222.068665,354.073822 
	C219.317307,356.467072 215.410172,357.746063 211.785660,356.014221 
	C208.583969,354.484406 209.037308,350.924103 209.013031,347.987274 
	C208.853363,328.679260 208.365967,309.409515 210.474655,290.101349 
	C214.587311,252.443558 228.450226,219.023483 252.403442,188.916306 
M272.168427,413.664734 
	C273.160950,413.755371 274.153503,413.925446 275.146027,413.925385 
	C358.791046,413.919678 442.436127,413.867981 526.080994,413.968567 
	C530.833984,413.974304 531.924194,412.241333 531.900696,407.822205 
	C531.724487,374.664948 531.741150,341.506500 531.756104,308.348450 
	C531.760681,298.293549 530.319885,288.421539 527.913696,278.717712 
	C511.388306,212.073456 451.656006,177.619843 399.755524,178.862595 
	C364.710114,179.701752 334.616913,191.940109 309.828369,216.281311 
	C283.623016,242.013794 271.013153,274.062134 270.464142,310.599701 
	C269.976013,343.084045 270.347412,375.581390 270.368927,408.072998 
	C270.370117,409.851807 269.887482,411.781647 272.168427,413.664734 
M479.233978,170.741470 
	C482.857544,171.269943 483.477203,168.832794 482.276855,166.598816 
	C480.574738,163.430862 477.268066,161.928879 473.638000,161.741180 
	C472.516357,161.683182 471.407990,162.524689 470.947266,163.667480 
	C470.403687,165.015900 471.375610,165.878387 472.338531,166.514511 
	C474.403229,167.878433 476.543549,169.127853 479.233978,170.741470 
M338.563751,168.226074 
	C341.699402,165.893860 341.099609,164.225250 337.584473,163.289154 
	C332.439484,161.919022 328.996429,164.866135 328.451904,171.219574 
	C331.746429,170.658066 334.957520,170.096283 338.563751,168.226074 
z"/>
<path fill="#000000" opacity="1.000000" stroke="none" 
	d="
M443.728516,540.056519 
	C492.491852,556.584656 524.559998,588.972168 539.538269,637.924805 
	C543.552185,651.043274 545.205444,664.594666 545.211121,678.320557 
	C545.218933,697.284241 546.103699,716.289734 541.036560,734.910767 
	C529.992310,775.496826 505.238770,805.113525 468.496979,824.726929 
	C401.274445,860.611328 316.021790,836.999939 276.529358,771.860291 
	C264.734131,752.405029 258.060059,731.255859 257.263275,708.513733 
	C256.452972,685.384155 255.676849,662.151611 262.530670,639.613464 
	C279.293427,584.490845 315.965698,550.283081 371.825409,536.828186 
	C395.839294,531.044067 419.761353,532.993469 443.728516,540.056519 
M524.719971,682.507751 
	C525.434387,659.525330 520.575562,637.740234 509.409241,617.684204 
	C483.032745,570.308838 430.453949,546.166870 377.207520,556.533447 
	C327.720551,566.168091 289.746216,604.118774 280.023224,653.595886 
	C276.647888,670.771790 278.369873,688.132446 278.058716,705.414246 
	C277.592010,731.336853 286.826141,754.047607 302.347412,774.254395 
	C337.654053,820.219238 403.974426,833.110535 453.677002,810.430664 
	C490.981567,793.408264 514.284241,764.714233 522.782104,724.325012 
	C525.626160,710.807800 524.451172,697.129028 524.719971,682.507751 
z"/>
<path fill="#000000" opacity="1.000000" stroke="none" 
	d="
M635.475586,449.895355 
	C642.743408,449.933899 649.658997,449.307739 656.367310,450.214630 
	C675.092285,452.746094 688.809631,468.897919 689.128906,489.124969 
	C689.520325,513.928040 689.228333,538.742126 689.169861,563.551331 
	C689.165039,565.604614 689.575928,567.958923 687.004395,569.537720 
	C683.734436,567.600159 682.621704,563.608032 679.434814,561.386169 
	C675.567505,558.690063 672.229004,558.380554 668.480835,561.044434 
	C667.666931,561.622864 666.821899,562.157959 665.985596,562.704407 
	C659.409363,567.000916 655.814087,565.407227 655.219971,557.601746 
	C654.882324,553.166199 654.236328,548.605469 655.956665,544.254578 
	C657.864502,539.429504 660.274231,538.471619 664.900146,540.785645 
	C666.374756,541.523254 667.679749,542.605652 669.044739,543.555603 
	C672.041138,545.640930 674.438843,545.163147 676.813110,542.314514 
	C684.124451,533.542786 686.839966,523.750854 684.229248,512.514526 
	C683.327026,508.631165 682.960144,504.626160 682.143677,500.719574 
	C680.938416,494.952362 677.019775,491.701172 671.630188,489.588623 
	C668.705322,493.154816 668.055603,497.213745 667.150635,501.255585 
	C663.133789,519.194763 651.608276,527.387634 634.186829,526.498413 
	C621.977478,525.875183 613.736023,518.599854 609.428833,507.613525 
	C605.109009,496.594879 606.977661,486.019562 614.616089,476.713287 
	C615.142883,476.071503 615.656250,475.332031 616.345093,474.923340 
	C623.599976,470.619019 627.065918,464.389435 627.365540,455.856110 
	C627.506226,451.848083 631.369141,450.514679 635.475586,449.895355 
M652.178284,504.537354 
	C653.783997,501.406128 655.071106,498.184235 654.453796,494.566467 
	C654.147339,492.770569 653.790894,490.872620 651.640747,490.294312 
	C649.611572,489.748566 648.019043,490.704773 646.871826,492.218262 
	C642.561829,497.903992 637.840637,503.202698 632.614136,508.063721 
	C631.556641,509.047272 630.270935,510.257782 631.130859,511.913116 
	C631.888123,513.370850 633.487732,513.610901 635.007385,513.689819 
	C642.231140,514.064819 647.862427,511.282471 652.178284,504.537354 
M620.828491,501.426025 
	C622.712708,503.588165 624.357117,502.662262 625.810791,500.943848 
	C630.972473,494.842163 636.303528,488.900574 642.035339,483.323853 
	C642.748657,482.629852 643.371826,481.801331 642.656311,480.246735 
	C636.927429,478.065704 631.037903,478.110046 626.067139,482.383942 
	C620.496643,487.173553 618.299683,493.418518 620.828491,501.426025 
z"/>
<path fill="#000000" opacity="1.000000" stroke="none" 
	d="
M194.612061,489.857483 
	C197.458786,506.271057 188.904877,521.037842 174.458817,525.269470 
	C159.395233,529.681946 143.796326,522.338684 137.822968,508.022919 
	C131.128586,491.979095 139.472214,473.344299 155.840714,467.781677 
	C172.421249,462.147003 189.674591,471.816406 194.612061,489.857483 
M168.465729,484.992981 
	C169.440674,483.715729 171.171082,482.959686 171.231964,481.051880 
	C165.745682,477.260559 158.078964,478.450348 152.865387,483.875031 
	C147.709778,489.239410 146.626236,497.624725 150.853790,503.515839 
	C156.618011,497.452667 162.298782,491.477234 168.465729,484.992981 
M182.491074,498.802368 
	C182.901550,494.815308 182.957443,490.926697 179.393204,487.599457 
	C173.757843,492.489594 169.988068,498.679993 165.175140,504.187775 
	C169.384552,503.217651 173.329529,501.671326 176.812469,505.608795 
	C177.924545,506.865906 179.390549,505.699982 180.069214,504.522186 
	C180.966553,502.964905 181.556961,501.230774 182.491074,498.802368 
z"/>
<path fill="#000000" opacity="1.000000" stroke="none" 
	d="
M184.678497,896.824341 
	C165.663376,908.304626 143.544724,899.327454 138.587433,878.167358 
	C135.904358,866.714722 140.057785,857.109863 148.710083,849.625916 
	C158.021591,841.571777 168.863892,840.251831 179.974350,845.053223 
	C190.564346,849.629761 196.555374,858.074097 197.386444,869.786499 
	C198.180679,880.979736 193.815430,889.845093 184.678497,896.824341 
M162.707886,888.269226 
	C168.867035,891.307434 176.514969,889.384094 181.415161,883.564575 
	C186.511047,877.512756 187.021408,869.676392 182.258240,863.471130 
	C175.602219,870.497864 168.998367,877.439453 162.442581,884.426086 
	C161.551437,885.375793 161.733780,886.580933 162.707886,888.269226 
M159.400589,856.734497 
	C150.334183,863.579224 147.594742,873.356384 153.560654,879.866028 
	C161.052917,872.529297 168.466125,865.175537 175.604706,857.018188 
	C170.044296,853.199158 165.071014,854.072205 159.400589,856.734497 
z"/>
<path fill="#000000" opacity="1.000000" stroke="none" 
	d="
M624.269409,900.077087 
	C612.372253,894.900879 605.481384,886.223572 604.725769,873.610474 
	C603.992676,861.374878 609.614197,851.967712 620.113708,845.919250 
	C631.201843,839.531677 646.079468,841.872070 655.245789,850.827209 
	C664.527039,859.894470 666.794556,873.511780 660.984924,885.291931 
	C655.241455,896.937683 642.993164,903.321228 629.987305,901.393005 
	C628.186462,901.126160 626.422302,900.612427 624.269409,900.077087 
M646.082642,865.655640 
	C639.282288,872.792480 632.481873,879.929260 625.548706,887.205383 
	C632.598450,891.332031 640.687561,890.612244 646.263306,885.901733 
	C651.332825,881.618835 653.683899,872.234314 651.256775,866.170349 
	C650.158081,863.425415 648.697266,862.822510 646.082642,865.655640 
M624.222778,875.675781 
	C630.061279,869.432434 635.899719,863.189087 641.873901,856.800537 
	C634.586792,852.678589 626.672119,854.248291 621.323669,860.227173 
	C616.385742,865.747192 615.507996,874.405273 619.363037,879.962158 
	C621.582214,879.604004 622.379456,877.549072 624.222778,875.675781 
z"/>
<path fill="#000000" opacity="1.000000" stroke="none" 
	d="
M601.551636,256.640686 
	C601.799438,259.694489 601.239441,262.129639 598.843750,264.527588 
	C596.218262,260.564362 595.516418,256.730164 596.432129,252.308151 
	C599.032227,252.873169 600.487061,254.276428 601.551636,256.640686 
z"/>
<path fill="#000000" opacity="1.000000" stroke="none" 
	d="
M369.731323,625.762207 
	C371.735229,623.727905 373.510345,621.969666 375.250549,620.177490 
	C376.650879,618.735413 377.230896,617.039673 376.223480,615.179504 
	C375.199890,613.289551 373.428741,613.745667 371.783691,614.068665 
	C369.547577,614.507812 367.319916,614.989868 363.968445,615.686401 
	C369.712891,608.062866 376.921204,604.929138 384.432526,602.368286 
	C388.845703,600.863831 393.396698,599.910889 398.119049,599.774658 
	C402.705902,599.642395 404.888916,601.763794 403.885406,606.146118 
	C402.849792,610.668945 404.969299,611.905151 408.808655,612.763855 
	C422.936066,615.923340 433.702057,623.682861 440.119598,636.862122 
	C449.366821,655.852417 443.254486,678.486145 425.242432,691.224854 
	C421.994263,693.522095 421.256744,695.560181 421.914612,699.420654 
	C425.406036,719.909302 428.446411,740.474426 431.849396,760.978882 
	C432.546021,765.176331 431.198120,766.193054 427.208832,766.139709 
	C411.055695,765.923584 394.893646,766.193726 378.746429,765.805298 
	C373.046295,765.668152 368.935852,768.110046 364.764069,771.268372 
	C362.460327,773.012451 360.377167,775.314392 356.947418,775.726501 
	C355.934540,771.144287 358.851044,768.667480 361.815613,767.348938 
	C369.257629,764.039062 371.377228,757.775146 372.617767,750.643494 
	C375.610382,733.439514 378.338715,716.197510 380.648468,698.887024 
	C381.094757,695.542297 380.192993,693.405396 377.366882,691.326050 
	C354.365692,674.402466 351.273895,648.198853 369.731323,625.762207 
z"/>
<path fill="#000000" opacity="1.000000" stroke="none" 
	d="
M373.064758,803.059082 
	C377.779877,802.743774 381.859344,803.845947 386.034515,805.552124 
	C382.585968,807.923523 374.530579,807.449341 372.199799,804.856506 
	C371.720001,804.322815 372.120453,803.609924 373.064758,803.059082 
z"/>
</svg>