<svg width="16" height="16" viewBox="0 0 16 16" fill="none" xmlns="http://www.w3.org/2000/svg">
<path d="M15.5912 7.29722L8.70165 0.407975C8.30515 0.0112251 7.66165 0.0112251 7.26453 0.407975L5.83403 1.83873L7.64878 3.65348C8.07065 3.5111 8.55415 3.6066 8.89028 3.94273C9.22815 4.28098 9.3229 4.7686 9.17703 5.19185L10.926 6.94098C11.3492 6.7951 11.8375 6.88935 12.1753 7.22785C12.6478 7.69998 12.6478 8.46535 12.1753 8.93773C12.063 9.05006 11.9297 9.13918 11.7829 9.19998C11.6362 9.26078 11.4789 9.29208 11.3201 9.29208C11.1613 9.29208 11.004 9.26078 10.8572 9.19998C10.7105 9.13918 10.5772 9.05006 10.4649 8.93773C10.2962 8.76889 10.1813 8.55396 10.1345 8.31995C10.0876 8.08595 10.1111 7.84333 10.2018 7.6226L8.57078 5.9916L8.57053 10.2842C8.68887 10.3425 8.79691 10.4197 8.8904 10.5127C9.36265 10.9848 9.36265 11.75 8.8904 12.2231C8.41802 12.6952 7.6524 12.6952 7.18053 12.2231C6.70828 11.7501 6.70828 10.985 7.18053 10.5127C7.29377 10.3995 7.42832 10.3099 7.5764 10.249V5.9166C7.42815 5.85594 7.29355 5.76622 7.18053 5.65273C6.82278 5.29523 6.73665 4.77023 6.92015 4.33073L5.13103 2.5416L0.407025 7.26535C0.21644 7.456 0.109375 7.71453 0.109375 7.9841C0.109375 8.25367 0.21644 8.51221 0.407025 8.70285L7.29665 15.5921C7.6934 15.9889 8.33665 15.9889 8.73403 15.5921L15.5913 8.73485C15.7818 8.54415 15.8888 8.28559 15.8888 8.01601C15.8888 7.74643 15.7817 7.48789 15.5912 7.29722Z" fill="#F34F29"/>
</svg>
