<svg width="45" height="45" viewBox="0 0 45 45" fill="none" xmlns="http://www.w3.org/2000/svg">
<circle cx="22.5" cy="22.5" r="22.5" fill="white"/>
<path d="M22.5002 2C11.1797 2 2 11.1691 2 22.4802C2 31.5288 7.87389 39.2058 16.0193 41.9138C17.0438 42.1034 17.42 41.4694 17.42 40.9285C17.42 40.4402 17.4008 38.8269 17.3921 37.1157C11.689 38.3544 10.4856 34.6992 10.4856 34.6992C9.55297 32.332 8.20926 31.7024 8.20926 31.7024C6.34936 30.4314 8.34955 30.4576 8.34955 30.4576C10.408 30.6019 11.492 32.568 11.492 32.568C13.3205 35.6989 16.2879 34.7938 17.4576 34.2704C17.6417 32.9469 18.1729 32.0432 18.7592 31.5318C14.2058 31.0141 9.41924 29.2579 9.41924 21.4106C9.41924 19.1746 10.22 17.3475 11.5314 15.9133C11.3185 15.3974 10.6169 13.3146 11.73 10.4934C11.73 10.4934 13.4515 9.94304 17.3691 12.5928C19.0043 12.139 20.758 11.9115 22.5002 11.9037C24.2423 11.9115 25.9975 12.1389 27.6357 12.5928C31.5485 9.9432 33.2676 10.4936 33.2676 10.4936C34.3834 13.3144 33.6815 15.3976 33.4686 15.9133C34.783 17.3475 35.5784 19.1746 35.5784 21.4106C35.5784 29.2766 30.7826 31.0086 26.2177 31.5157C26.953 32.1512 27.6082 33.3976 27.6082 35.3083C27.6082 38.0485 27.5845 40.2539 27.5845 40.9285C27.5845 41.4736 27.9535 42.1122 28.9926 41.9109C37.1335 39.2 43 31.5259 43 22.4803C43 11.1691 33.8216 2 22.5002 2ZM9.67805 31.1744C9.63289 31.2762 9.47257 31.3067 9.32667 31.2368C9.17788 31.1701 9.09444 31.0314 9.14249 30.9293C9.18669 30.8245 9.34733 30.7952 9.49563 30.8654C9.64458 30.9323 9.72946 31.0723 9.67805 31.1744ZM10.6864 32.0733C10.5887 32.1638 10.3975 32.1218 10.2677 31.9787C10.1337 31.836 10.1086 31.645 10.2077 31.5531C10.3086 31.4626 10.4939 31.505 10.6283 31.6477C10.7625 31.7922 10.7884 31.9818 10.6864 32.0733ZM11.3783 33.2234C11.2525 33.3106 11.0472 33.2288 10.9202 33.0467C10.7947 32.8646 10.7947 32.6462 10.9229 32.5587C11.0503 32.4712 11.2525 32.5499 11.3812 32.7307C11.5064 32.9158 11.5064 33.1342 11.3781 33.2235M12.5479 34.5555C12.4356 34.6794 12.1962 34.6461 12.021 34.4771C11.8418 34.312 11.792 34.0778 11.9047 33.9539C12.0184 33.8298 12.2591 33.8646 12.4356 34.0323C12.6134 34.1971 12.6678 34.4331 12.5479 34.5555ZM14.0601 35.0051C14.0104 35.1656 13.7798 35.2386 13.5477 35.1704C13.3158 35.1002 13.1642 34.9123 13.2109 34.7502C13.2591 34.5886 13.4907 34.5128 13.7246 34.5858C13.9561 34.6555 14.1083 34.8421 14.0601 35.0053M15.7808 35.1962C15.7866 35.365 15.5897 35.505 15.346 35.5082C15.1009 35.5136 14.9025 35.377 14.8998 35.2106C14.8998 35.0402 15.0923 34.9014 15.3375 34.8973C15.5812 34.8925 15.7808 35.0282 15.7808 35.1962ZM17.4713 35.1314C17.5004 35.2962 17.3311 35.4654 17.089 35.5106C16.8511 35.5539 16.6308 35.4522 16.6005 35.2888C16.571 35.1198 16.7435 34.9506 16.981 34.9069C17.2235 34.8648 17.4403 34.9638 17.4713 35.1314Z" fill="#161614"/>
</svg>
