<svg width="40" height="44" viewBox="0 0 40 44" fill="none" xmlns="http://www.w3.org/2000/svg">
<path d="M37.4306 21.6051C37.4306 19.3494 35.5928 17.5207 33.3259 17.5207C33.18 17.5208 33.0362 17.5284 32.8943 17.5434L38.5321 0.997559H14.5734L20.2034 17.529C20.1203 17.5237 20.0371 17.521 19.9538 17.5209C17.687 17.5209 15.8492 19.3493 15.8492 21.6053C15.8492 23.4285 17.0501 24.9723 18.7074 25.4975C17.8321 27.0062 16.7306 28.3652 15.4799 29.5394C13.7793 31.1357 11.8331 32.3462 9.72807 33.0921C7.22182 31.8109 6.03838 28.9618 7.10619 26.4638C7.22682 26.1816 7.34994 25.8956 7.4676 25.611C9.28322 25.1893 10.6363 23.5697 10.6363 21.6345C10.6363 19.3787 8.79853 17.5501 6.5315 17.5501C4.26447 17.5501 2.42681 19.3787 2.42681 21.6345C2.42681 23.0178 3.11838 24.2397 4.17572 24.9785C3.15978 27.2802 1.66635 29.6891 1.20103 32.481C0.643377 35.8269 1.19916 39.3786 4.10744 41.3844C10.8806 46.0556 18.2328 38.4887 25.9846 36.5864C28.794 35.8972 31.8779 36.0082 34.3531 34.5818C36.2118 33.5106 37.4373 31.7352 37.7849 29.7421C38.1287 27.7732 37.6278 25.8128 36.4759 24.2232C37.0938 23.4895 37.4319 22.5624 37.4306 21.6051Z" fill="#99425B"/>
<path d="M36.7968 29.5714C36.4949 31.3019 35.4208 32.8133 33.8502 33.7186C32.386 34.5624 30.6314 34.8143 28.7736 35.0807C27.7785 35.2235 26.7494 35.3713 25.7441 35.6179C23.086 36.2701 20.5113 37.5427 18.0216 38.7733C13.0388 41.2361 8.73567 43.3627 4.67817 40.5644C1.70598 38.5148 1.84317 34.7224 2.18942 32.6443C2.51035 30.7188 3.37801 28.9456 4.21692 27.2309C4.35984 26.9394 4.50161 26.6474 4.64223 26.3549C5.06514 26.523 5.50886 26.6338 5.96145 26.6842C5.10738 29.4889 6.45051 32.5384 9.26942 33.9794L9.65535 34.1767L10.0638 34.0319C12.2924 33.2421 14.346 31.9749 16.1674 30.2648C17.3447 29.1596 18.3571 27.9367 19.1891 26.6301C19.4421 26.668 19.6975 26.687 19.9533 26.6872C22.5407 26.6872 24.6832 24.7625 25.0147 22.2767C26.0738 22.2382 27.1986 22.2379 28.2638 22.2764C28.595 24.7625 30.7379 26.6873 33.3252 26.6873C34.4071 26.6873 35.4105 26.3499 36.2372 25.7768C36.8111 26.9459 37.0254 28.2612 36.7968 29.5714ZM6.53113 18.5476C8.24176 18.5476 9.63332 19.9325 9.63332 21.6346C9.63379 22.2238 9.46373 22.8007 9.14348 23.2962C8.62785 24.0965 7.75129 24.645 6.74426 24.7134C6.67379 24.718 6.6027 24.7215 6.53113 24.7215C6.14988 24.7215 5.78473 24.6523 5.44707 24.5267C4.76707 24.2722 4.19761 23.7896 3.83692 23.162C3.56893 22.6972 3.42821 22.1705 3.42879 21.6346C3.42879 19.9325 4.82051 18.5476 6.53113 18.5476ZM16.8513 21.6052C16.8513 20.0587 18.0002 18.7746 19.493 18.5526C19.6434 18.5299 19.7969 18.5185 19.9535 18.5184C20.948 18.5184 21.8335 18.9872 22.4013 19.7136C22.5434 19.8948 22.6649 20.0911 22.7635 20.2989C22.9565 20.7076 23.0562 21.1537 23.0557 21.6052C23.0557 21.852 23.0257 22.0919 22.9705 22.322C22.6682 23.5814 21.5889 24.5441 20.2664 24.6765C20.1636 24.6869 20.0593 24.6921 19.9535 24.6921C19.3568 24.6926 18.7727 24.5208 18.2722 24.1975C17.4182 23.647 16.8513 22.6909 16.8513 21.6052ZM29.7989 17.9344C29.1237 18.5755 28.6379 19.3884 28.3941 20.2848C27.2248 20.2419 26.0543 20.2419 24.885 20.2848C24.6225 19.3158 24.0785 18.461 23.3464 17.8118L26.5566 11.3529L29.7989 17.9344ZM15.9711 1.99539H37.1332L32.1349 16.6639C31.9199 16.7151 31.7084 16.7803 31.5019 16.859L26.5644 6.83648L21.6129 16.7991C21.397 16.7254 21.1764 16.6662 20.9525 16.622L15.9711 1.99539ZM36.4274 21.6054C36.4274 21.9148 36.381 22.2136 36.2955 22.4958C36.0928 23.1602 35.6717 23.7376 35.0997 24.1353C34.5799 24.4983 33.9602 24.6928 33.3252 24.6922C31.8929 24.6922 30.6846 23.721 30.3293 22.4056C30.2587 22.1447 30.223 21.8756 30.223 21.6054C30.223 21.1834 30.3086 20.7811 30.4633 20.4144C30.5433 20.2269 30.6416 20.0477 30.7568 19.8793C31.315 19.0593 32.2571 18.5186 33.3252 18.5186C33.4231 18.5187 33.5199 18.5233 33.6155 18.5326C35.1905 18.6785 36.4274 20.0006 36.4274 21.6054ZM38.4327 21.6054C38.4327 19.1243 36.6361 17.0541 34.2699 16.6119L39.93 0H13.1746L18.8436 16.6455C16.5596 17.1513 14.8463 19.1823 14.8463 21.6052C14.8463 23.4246 15.8125 25.0226 17.2607 25.9207C16.5641 26.9533 15.7382 27.9251 14.7916 28.8138C13.2904 30.2229 11.618 31.2916 9.81504 31.9948C7.99895 30.8597 7.23129 28.7189 8.02848 26.8541L8.09098 26.708L8.20817 26.4337C10.2029 25.7414 11.6383 23.8524 11.6383 21.6346C11.6383 18.8323 9.34723 16.5526 6.53113 16.5526C3.71488 16.5526 1.42379 18.8323 1.42379 21.6346C1.42379 23.049 2.00817 24.3298 2.94848 25.2521C2.7731 25.6219 2.59508 25.9903 2.41442 26.3576C1.55457 28.1146 0.580197 30.1061 0.211603 32.3178C-0.520272 36.71 0.660353 40.2211 3.53613 42.2042C5.28113 43.4076 7.05332 43.8809 8.8366 43.8809C12.1944 43.8809 15.5913 42.2022 18.9136 40.5601C21.3063 39.3777 23.7805 38.1548 26.2244 37.555C27.1338 37.3319 28.0694 37.1976 29.06 37.0555C31.0246 36.7734 33.0558 36.4819 34.8552 35.445C36.941 34.2429 38.3686 32.2263 38.7724 29.9128C39.1189 27.9266 38.7019 25.9373 37.6847 24.2501C38.1748 23.4541 38.4337 22.5387 38.4327 21.6052" fill="white"/>
</svg>
