<svg width="40" height="40" viewBox="0 0 40 40" fill="none" xmlns="http://www.w3.org/2000/svg">
<mask id="mask0_58362_3574" style="mask-type:luminance" maskUnits="userSpaceOnUse" x="0" y="0" width="40" height="40">
<path d="M0 0H40V40H0V0Z" fill="white"/>
</mask>
<g mask="url(#mask0_58362_3574)">
<path d="M18.69 0.0102083C18.6033 0.0185417 18.33 0.046875 18.0833 0.0652083C12.4033 0.578542 7.08333 3.64354 3.71 8.35521C1.84833 10.9421 0.637476 13.9394 0.18 17.0935C0.02 18.1935 0 18.5169 0 20.0069C0 21.4969 0.02 21.8219 0.18 22.9202C1.26667 30.4319 6.61333 36.7419 13.8617 39.0802C15.16 39.4985 16.5283 39.7835 18.0833 39.9569C18.69 40.0235 21.31 40.0235 21.9167 39.9569C24.6017 39.6585 26.8783 38.9935 29.1217 37.8485C29.4667 37.6735 29.5333 37.6252 29.4867 37.5869C28.3893 36.1397 27.3032 34.6841 26.2283 33.2202L23.03 28.8985L19.0233 22.9669C17.6902 20.9829 16.3446 19.0073 14.9867 17.0402C14.9717 17.0352 14.9567 19.6702 14.9483 22.8902C14.9367 28.5235 14.9317 28.7502 14.8617 28.8835C14.7929 29.0388 14.6712 29.1646 14.5183 29.2385C14.3933 29.3019 14.285 29.3135 13.6933 29.3135H13.0167L12.8367 29.2002C12.7253 29.1299 12.6349 29.0309 12.575 28.9135L12.4917 28.7385L12.5 20.8985L12.5117 13.0552L12.6333 12.9019C12.7141 12.8048 12.8125 12.724 12.9233 12.6635C13.0833 12.5852 13.145 12.5785 13.8233 12.5785C14.62 12.5785 14.7533 12.6085 14.96 12.8352C15.0183 12.8985 17.1883 16.1685 19.785 20.1052L27.675 32.0585L30.8417 36.8552L31.0033 36.7502C32.5275 35.7373 33.9093 34.5249 35.1117 33.1452C37.6317 30.2605 39.2664 26.7104 39.82 22.9202C39.98 21.8202 40 21.4969 40 20.0069C40 18.5169 39.98 18.1935 39.82 17.0935C38.7333 9.58354 33.3867 3.27187 26.1383 0.933542C24.7836 0.502824 23.3887 0.21077 21.975 0.061875C21.5983 0.021875 19.015 -0.0214583 18.6917 0.011875M26.88 12.1119C26.9731 12.1585 27.056 12.2231 27.1238 12.3021C27.1916 12.3811 27.243 12.4728 27.275 12.5719C27.305 12.6719 27.3133 14.8469 27.305 19.7469L27.2933 26.7769L26.055 24.8769L24.8117 22.9769V17.8669C24.8117 14.5619 24.8267 12.7052 24.85 12.6152C24.8779 12.5112 24.9266 12.4139 24.993 12.3291C25.0594 12.2443 25.1423 12.1738 25.2367 12.1219C25.3983 12.0385 25.4567 12.0319 26.07 12.0319C26.6483 12.0319 26.75 12.0402 26.88 12.1102" fill="#0D99FF"/>
</g>
</svg>
