<svg width="256" height="289" viewBox="0 0 256 289" fill="none" xmlns="http://www.w3.org/2000/svg">
<path d="M128 288.464C124.025 288.464 120.315 287.404 116.87 285.549L81.623 264.613C76.323 261.698 78.973 260.638 80.563 260.108C87.718 257.723 89.043 257.193 96.463 252.952C97.259 252.422 98.319 252.687 99.113 253.217L126.145 269.383C127.205 269.913 128.53 269.913 129.325 269.383L235.065 208.166C236.125 207.636 236.655 206.576 236.655 205.251V83.08C236.655 81.755 236.125 80.695 235.065 80.165L129.325 19.212C128.265 18.682 126.94 18.682 126.145 19.212L20.405 80.166C19.345 80.696 18.815 82.021 18.815 83.081V205.251C18.815 206.311 19.345 207.636 20.405 208.166L49.292 224.861C64.928 232.811 74.732 223.536 74.732 214.261V93.68C74.732 92.09 76.058 90.5 77.913 90.5H91.429C93.019 90.5 94.609 91.825 94.609 93.68V214.26C94.609 235.196 83.213 247.386 63.337 247.386C57.242 247.386 52.472 247.386 38.957 240.761L11.13 224.861C4.24 220.885 0 213.465 0 205.515V83.346C0 75.396 4.24 67.976 11.13 64L116.87 2.78299C123.495 -0.927012 132.505 -0.927012 139.13 2.78299L244.87 64C251.76 67.975 256 75.395 256 83.346V205.516C256 213.466 251.76 220.886 244.87 224.861L139.13 286.08C135.685 287.67 131.71 288.465 128 288.465M160.596 204.456C114.219 204.456 104.679 183.256 104.679 165.235C104.679 163.645 106.004 162.055 107.859 162.055H121.639C123.229 162.055 124.555 163.115 124.555 164.705C126.675 178.75 132.77 185.641 160.861 185.641C183.122 185.641 192.663 180.606 192.663 168.681C192.663 161.79 190.013 156.755 155.296 153.309C126.41 150.394 108.389 144.034 108.389 120.979C108.389 99.512 126.409 86.792 156.621 86.792C190.542 86.792 207.238 98.452 209.358 123.893C209.358 124.688 209.093 125.483 208.563 126.278C208.033 126.808 207.238 127.338 206.443 127.338H192.663C191.337 127.338 190.013 126.278 189.747 124.953C186.567 110.378 178.352 105.608 156.621 105.608C132.241 105.608 129.325 114.088 129.325 120.448C129.325 128.134 132.77 130.518 165.631 134.758C198.228 138.998 213.598 145.094 213.598 167.885C213.333 191.206 194.253 204.456 160.596 204.456Z" fill="#539E43"/>
</svg>
