<svg width="16" height="16" viewBox="0 0 16 16" fill="none" xmlns="http://www.w3.org/2000/svg">
<path d="M8.00117 9.42501C8.78818 9.42501 9.42617 8.78702 9.42617 8.00001C9.42617 7.21301 8.78818 6.57501 8.00117 6.57501C7.21417 6.57501 6.57617 7.21301 6.57617 8.00001C6.57617 8.78702 7.21417 9.42501 8.00117 9.42501Z" fill="#61DAFB"/>
<path d="M13.4133 5.65001C13.1383 5.55001 12.8508 5.45001 12.5508 5.36251C12.6258 5.06251 12.6883 4.76251 12.7383 4.47501C13.0008 2.82501 12.7133 1.66251 11.9133 1.21251C11.6758 1.07501 11.4133 1.01251 11.1133 1.01251C10.2383 1.01251 9.12578 1.66251 8.00078 2.75001C6.87578 1.66251 5.76328 1.01251 4.88828 1.01251C4.58828 1.01251 4.32578 1.07501 4.08828 1.21251C3.28828 1.67501 3.00078 2.83751 3.26328 4.47501C3.31328 4.76251 3.37578 5.06251 3.45078 5.36251C3.15078 5.45001 2.86328 5.53751 2.58828 5.65001C1.02578 6.25001 0.175781 7.07501 0.175781 8.00001C0.175781 8.92501 1.03828 9.75001 2.58828 10.35C2.86328 10.45 3.15078 10.55 3.45078 10.6375C3.37578 10.9375 3.31328 11.2375 3.26328 11.525C3.00078 13.175 3.28828 14.3375 4.08828 14.7875C4.32578 14.925 4.58828 14.9875 4.88828 14.9875C5.77578 14.9875 6.88828 14.3375 8.00078 13.25C9.12578 14.3375 10.2383 14.9875 11.1133 14.9875C11.4133 14.9875 11.6758 14.925 11.9133 14.7875C12.7133 14.325 13.0008 13.1625 12.7383 11.525C12.6883 11.2375 12.6258 10.9375 12.5508 10.6375C12.8508 10.55 13.1383 10.4625 13.4133 10.35C14.9758 9.75001 15.8258 8.92501 15.8258 8.00001C15.8258 7.07501 14.9758 6.25001 13.4133 5.65001ZM11.5633 1.83751C12.0758 2.13751 12.2508 3.06251 12.0383 4.37501C12.0008 4.63751 11.9383 4.91251 11.8633 5.20001C11.2133 5.05001 10.5258 4.95001 9.80078 4.88751C9.37578 4.28751 8.93828 3.75001 8.50078 3.26251C9.42578 2.35001 10.3633 1.72501 11.1258 1.72501C11.2883 1.72501 11.4383 1.76251 11.5633 1.83751ZM10.1633 9.25001C9.93828 9.65001 9.67578 10.05 9.40078 10.45C8.93828 10.4875 8.47578 10.5 8.00078 10.5C7.51328 10.5 7.05078 10.4875 6.60078 10.45C6.32578 10.05 6.07578 9.65001 5.85078 9.25001C5.61328 8.83751 5.38828 8.41251 5.18828 8.00001C5.38828 7.58751 5.61328 7.16251 5.85078 6.75001C6.07578 6.35001 6.33828 5.95001 6.61328 5.55001C7.07578 5.51251 7.53828 5.50001 8.01328 5.50001C8.50078 5.50001 8.96328 5.51251 9.41328 5.55001C9.68828 5.95001 9.93828 6.35001 10.1633 6.75001C10.4008 7.16251 10.6258 7.58751 10.8258 8.00001C10.6133 8.41251 10.4008 8.82501 10.1633 9.25001ZM11.2008 8.83751C11.3883 9.27501 11.5383 9.70001 11.6758 10.125C11.2508 10.225 10.8008 10.3 10.3258 10.3625C10.4758 10.125 10.6383 9.87501 10.7758 9.61251C10.9258 9.35001 11.0633 9.08751 11.2008 8.83751ZM8.00078 12.225C7.70078 11.9 7.41328 11.55 7.13828 11.1875C7.42578 11.2 7.71328 11.2125 8.00078 11.2125C8.28828 11.2125 8.57578 11.2 8.86328 11.1875C8.58828 11.55 8.30078 11.9 8.00078 12.225ZM5.67578 10.35C5.20078 10.2875 4.75078 10.2125 4.32578 10.1125C4.46328 9.70001 4.61328 9.26251 4.80078 8.82501C4.93828 9.07501 5.07578 9.33751 5.22578 9.58751C5.37578 9.86251 5.52578 10.1 5.67578 10.35ZM4.80078 7.16251C4.61328 6.72501 4.46328 6.30001 4.32578 5.87501C4.75078 5.77501 5.20078 5.70001 5.67578 5.63751C5.52578 5.87501 5.36328 6.12501 5.22578 6.38751C5.07578 6.65001 4.93828 6.91251 4.80078 7.16251ZM8.00078 3.77501C8.30078 4.10001 8.58828 4.45001 8.86328 4.81251C8.57578 4.80001 8.28828 4.78751 8.00078 4.78751C7.71328 4.78751 7.42578 4.80001 7.13828 4.81251C7.41328 4.45001 7.70078 4.10001 8.00078 3.77501ZM10.7758 6.40001L10.3258 5.65001C10.8008 5.71251 11.2508 5.78751 11.6758 5.88751C11.5383 6.30001 11.3883 6.73751 11.2008 7.17501C11.0633 6.91251 10.9258 6.65001 10.7758 6.40001ZM3.96328 4.37501C3.75078 3.06251 3.92578 2.13751 4.43828 1.83751C4.56328 1.76251 4.71328 1.72501 4.87578 1.72501C5.62578 1.72501 6.56328 2.33751 7.50078 3.26251C7.06328 3.73751 6.62578 4.28751 6.20078 4.88751C5.47578 4.95001 4.78828 5.06251 4.13828 5.20001C4.06328 4.91251 4.01328 4.63751 3.96328 4.37501ZM0.875781 8.00001C0.875781 7.41251 1.58828 6.78751 2.83828 6.32501C3.08828 6.22501 3.36328 6.13751 3.63828 6.06251C3.83828 6.68751 4.08828 7.35001 4.38828 8.01251C4.08828 8.67501 3.82578 9.32501 3.63828 9.95001C1.91328 9.45001 0.875781 8.70001 0.875781 8.00001ZM4.43828 14.1625C3.92578 13.8625 3.75078 12.9375 3.96328 11.625C4.00078 11.3625 4.06328 11.0875 4.13828 10.8C4.78828 10.95 5.47578 11.05 6.20078 11.1125C6.62578 11.7125 7.06328 12.25 7.50078 12.7375C6.57578 13.65 5.63828 14.275 4.87578 14.275C4.71328 14.275 4.56328 14.2375 4.43828 14.1625ZM12.0383 11.625C12.2508 12.9375 12.0758 13.8625 11.5633 14.1625C11.4383 14.2375 11.2883 14.275 11.1258 14.275C10.3758 14.275 9.43828 13.6625 8.50078 12.7375C8.93828 12.2625 9.37578 11.7125 9.80078 11.1125C10.5258 11.05 11.2133 10.9375 11.8633 10.8C11.9383 11.0875 11.9883 11.3625 12.0383 11.625ZM13.1633 9.67501C12.9133 9.77501 12.6383 9.86251 12.3633 9.93751C12.1633 9.31251 11.9133 8.65001 11.6133 7.98751C11.9133 7.32501 12.1758 6.67501 12.3633 6.05001C14.0883 6.55001 15.1258 7.30001 15.1258 8.00001C15.1258 8.58751 14.4008 9.21251 13.1633 9.67501Z" fill="#61DAFB"/>
</svg>
